<svg width="25" height="25" viewBox="0 0 25 25" fill="none" xmlns="http://www.w3.org/2000/svg">
<path d="M11.8479 24.9819C7.49051 24.763 3.50818 22.245 1.47378 18.3668C-0.710619 14.3459 -0.475199 9.12848 2.23629 5.38687C4.94569 1.38678 9.89262 -0.735204 14.876 0.231988C19.65 1.12518 23.5751 4.91578 24.624 9.51932C25.7928 14.0468 24.1834 19.0797 20.5355 22.0678C18.1511 24.1033 15.0198 25.1486 11.8479 24.9829V24.9819ZM19.874 16.5919C18.775 15.9329 17.6739 15.2773 16.5708 14.6252C15.6302 16.1708 13.5656 16.9682 11.8104 16.3605C9.702 15.6945 8.2749 13.2474 9.21866 11.0097C10.053 8.91587 12.1249 8.18839 13.7572 8.44165C14.8573 8.64944 15.8355 9.27218 16.4896 10.1811C17.6115 9.52349 18.7063 8.9117 19.7948 8.2478C17.6802 4.99812 13.3875 3.77245 9.73637 5.37749C6.47592 6.86059 4.64257 10.2551 5.16549 13.6309C5.72799 17.3809 9.05095 20.3908 13.2031 20.3054C14.5365 20.2931 15.8456 19.9468 17.0109 19.2981C18.1762 18.6494 19.1605 17.7191 19.874 16.5919Z" fill="#B1AEA5"/>
</svg>
