<svg width="35" height="30" viewBox="0 0 35 30" fill="none" xmlns="http://www.w3.org/2000/svg">
<path d="M0.636719 0V25.2C0.636719 26.473 1.20278 27.6939 2.21037 28.5941C3.21796 29.4943 4.58455 30 6.0095 30H28.8438C30.2688 30 31.6354 29.4943 32.6429 28.5941C33.6505 27.6939 34.2166 26.473 34.2166 25.2V4.8C34.2166 3.52696 33.6505 2.30606 32.6429 1.40589C31.6354 0.505713 30.2688 0 28.8438 0L0.636719 0ZM20.5832 16.35C22.7659 16.35 23.7733 17.7 23.8068 19.65H21.557C21.5906 19.29 21.4898 18.9 21.3555 18.6C21.2212 18.36 20.9525 18.27 20.5832 18.27C19.9451 18.27 19.6094 18.6 19.6094 19.32C19.5758 20.04 20.0123 20.43 20.6839 20.67C21.6913 21.03 22.9338 21.6 23.3703 22.29C23.7733 22.83 23.9747 23.52 23.9747 24.36C23.9747 26.37 22.6987 27.6 20.4824 27.6C18.1654 27.6 17.1244 26.31 17.0909 24.24H19.4415C19.4415 25.23 19.8108 25.71 20.5496 25.71C20.919 25.71 21.1876 25.62 21.3219 25.41C21.5906 25.02 21.6577 23.94 21.2548 23.52C20.8182 23.01 19.9787 22.77 19.4079 22.5C18.6355 22.17 18.0647 21.78 17.6953 21.33C17.3595 20.88 17.1916 20.22 17.1916 19.41C17.1916 17.61 18.5012 16.32 20.5832 16.35ZM28.1386 16.35C30.3549 16.35 31.3623 17.7 31.3959 19.65H29.146C29.146 19.29 29.0789 18.9 28.911 18.6C28.7767 18.36 28.5416 18.27 28.1722 18.27C27.5006 18.27 27.1648 18.6 27.1648 19.32C27.1648 20.04 27.5678 20.43 28.273 20.67C29.2468 21.03 30.5228 21.6 30.9594 22.29C31.3287 22.83 31.5302 23.52 31.5302 24.36C31.5638 26.37 30.2878 27.6 28.0715 27.6C25.7209 27.6 24.6799 26.28 24.6463 24.24H26.9969C26.9969 25.17 27.3663 25.71 28.1051 25.71C28.4744 25.71 28.7431 25.62 28.8774 25.41C29.1796 25.02 29.2468 23.94 28.8102 23.52C28.4073 23.01 27.5678 22.77 26.9633 22.5C26.191 22.17 25.6201 21.78 25.2843 21.33C24.9485 20.88 24.7807 20.22 24.7807 19.41C24.7471 17.61 26.0567 16.32 28.1386 16.35ZM12.7045 16.3725C13.6993 16.365 14.6899 16.62 15.2775 17.16C15.882 17.7 16.2178 18.57 16.1842 19.65H13.6993C13.7329 19.08 13.565 18.66 13.0949 18.45C12.6583 18.27 12.0203 18.39 11.8524 18.75C11.6845 19.08 11.5838 19.47 11.6173 19.83V24.21C11.6173 25.14 11.9867 25.62 12.6919 25.62C12.8411 25.6259 12.9895 25.5988 13.1242 25.5413C13.2589 25.4837 13.3757 25.3974 13.4642 25.29C13.6993 24.99 13.7329 24.6 13.6993 24.24H16.1842C16.3185 26.28 14.8074 27.63 12.5912 27.6C10.442 27.6 9.09885 26.52 9.13243 24.51V19.47C9.13243 18.45 9.46823 17.67 10.1062 17.16C10.7107 16.65 11.7097 16.38 12.7045 16.3725Z" fill="#B1AEA5"/>
</svg>
