<svg width="34" height="30" viewBox="0 0 34 30" fill="none" xmlns="http://www.w3.org/2000/svg">
<path d="M33.0207 13.6627L18.3587 0.565307C17.5136 -0.188435 16.1452 -0.188435 15.2973 0.565307L12.2597 3.28403L16.1214 6.73399C17.0239 6.46524 18.0509 6.64649 18.7645 7.28524C19.4865 7.92898 19.6851 8.85772 19.3773 9.66021L23.0963 12.9852C23.9988 12.7064 25.037 12.8877 25.7548 13.5289C26.7636 14.4289 26.7636 15.8839 25.7548 16.7839C24.7488 17.6826 23.1229 17.6826 22.1169 16.7839C21.3628 16.1076 21.1739 15.1127 21.5516 14.2889L18.0691 11.1939V19.3501C18.3153 19.4576 18.5476 19.6039 18.7519 19.7851C19.7495 20.6863 19.7495 22.1388 18.7519 23.0351C17.7459 23.9363 16.1088 23.9363 15.1014 23.0351C14.0954 22.1363 14.0954 20.6863 15.1014 19.7876C15.3561 19.5626 15.6429 19.3926 15.9479 19.2801V11.0439C15.6443 10.9302 15.3547 10.7664 15.1084 10.5427C14.3459 9.86146 14.1626 8.86522 14.5544 8.03148L10.7598 4.62526L0.705313 13.6014C-0.134193 14.3577 -0.134193 15.5814 0.705313 16.3376L15.3687 29.4338C16.2138 30.1887 17.5822 30.1887 18.4273 29.4338L33.0207 16.3964C33.8672 15.6426 33.8672 14.4189 33.0207 13.6627Z" fill="#B1AEA5"/>
</svg>
