<svg width="34" height="30" viewBox="0 0 34 30" fill="none" xmlns="http://www.w3.org/2000/svg">
<path d="M17.1903 0C7.91389 0 0.400391 6.88678 0.400391 15.3808C0.400391 22.1779 5.21071 27.9419 11.8805 29.9734C12.72 30.1183 13.0278 29.6427 13.0278 29.2339C13.0278 28.8686 13.0138 27.9009 13.0068 26.6191C8.33644 27.5471 7.35143 24.5555 7.35143 24.5555C6.58748 22.7803 5.48354 22.3061 5.48354 22.3061C3.96266 21.3525 5.60107 21.3717 5.60107 21.3717C7.28706 21.4794 8.17273 22.9559 8.17273 22.9559C9.66984 25.3079 12.103 24.6286 13.0628 24.2351C13.2139 23.2405 13.6463 22.5624 14.1262 22.1779C10.3974 21.7934 6.47835 20.4706 6.47835 14.5772C6.47835 12.8981 7.12896 11.5267 8.20631 10.45C8.01743 10.0616 7.45077 8.49792 8.35323 6.37921C8.35323 6.37921 9.75938 5.96649 12.9705 7.95574C14.3137 7.61352 15.7408 7.44433 17.1679 7.43664C18.5951 7.44433 20.0222 7.61352 21.3654 7.95574C24.5555 5.96649 25.9617 6.37921 25.9617 6.37921C26.8641 8.49792 26.2975 10.0616 26.1296 10.45C27.1999 11.5267 27.8505 12.8981 27.8505 14.5772C27.8505 20.486 23.9259 21.787 20.1901 22.1651C20.7778 22.6265 21.3235 23.5699 21.3235 25.0105C21.3235 27.069 21.3025 28.7225 21.3025 29.2223C21.3025 29.6261 21.5963 30.1067 22.4568 29.9529C29.1742 27.9355 33.9803 22.1676 33.9803 15.3808C33.9803 6.88678 26.4626 0 17.1903 0Z" fill="#B1AEA5"/>
</svg>
