<svg width="35" height="30" viewBox="0 0 35 30" fill="none" xmlns="http://www.w3.org/2000/svg">
<path d="M0.751465 0H34.3313V30H0.751465V0ZM31.5806 22.845C31.3357 21.4762 30.3381 20.3263 27.3789 19.2537C26.3491 18.8225 25.2046 18.5225 24.8646 17.8287C24.7373 17.4162 24.7177 17.1912 24.8003 16.9475C25.0101 16.14 26.0805 15.8975 26.92 16.1225C27.4657 16.2725 27.9694 16.6475 28.2856 17.2475C29.7323 16.4025 29.7323 16.4025 30.7411 15.8413C30.3633 15.3162 30.1758 15.09 29.9212 14.8662C29.0397 13.985 27.8658 13.535 25.956 13.5738L24.9696 13.685C24.0237 13.8913 23.1227 14.3413 22.577 14.9412C20.9819 16.555 21.4423 19.3675 23.3731 20.53C25.283 21.805 28.0757 22.085 28.4325 23.2862C28.7683 24.7488 27.2152 25.2175 25.6817 25.0487C24.547 24.8237 23.9188 24.3162 23.2262 23.3787L20.6657 24.6925C20.9596 25.2925 21.2954 25.5537 21.7991 26.0788C24.2336 28.2738 30.3199 28.1612 31.4127 24.8237C31.4533 24.7112 31.7485 23.9425 31.5162 22.7613L31.5806 22.845ZM19.0119 13.7887H15.8666C15.8666 16.2112 15.854 18.6188 15.854 21.045C15.854 22.585 15.9422 23.9988 15.6609 24.4338C15.1992 25.295 14.0099 25.185 13.4698 25.0338C12.9158 24.7887 12.6345 24.4513 12.3085 23.965C12.2204 23.8337 12.1546 23.72 12.1308 23.72L9.57738 25.1262C10.0041 25.9137 10.6267 26.5912 11.4299 27.0225C12.6261 27.66 14.2338 27.8662 15.917 27.5287C17.0125 27.2463 17.957 26.665 18.4509 25.765C19.1644 24.6025 19.0133 23.1775 19.0063 21.5825C19.0231 19.015 19.0063 16.4462 19.0063 13.8587L19.0119 13.7887Z" fill="#B1AEA5"/>
</svg>
