<svg width="25" height="25" viewBox="0 0 25 25" fill="none" xmlns="http://www.w3.org/2000/svg">
<path fill-rule="evenodd" clip-rule="evenodd" d="M2.5 0H22.5C23.8807 0 25 1.11929 25 2.5V22.5C25 23.8807 23.8807 25 22.5 25H2.5C1.11929 25 0 23.8807 0 22.5V2.5C0 1.11929 1.11929 0 2.5 0ZM2.5 2.5V22.5H22.5V2.5H2.5ZM11.8152 9.31519C12.4191 8.94782 13.1028 8.75 13.75 8.75H15C16.7424 8.75 18.75 10.184 18.75 12.5V17.5H16.25V12.5C16.25 11.7803 15.5076 11.25 15 11.25H13.75C13.2424 11.25 12.5 11.7803 12.5 12.5V17.5H10V8.75H11.25L11.8152 9.31519ZM7.5 7.5C6.80964 7.5 6.25 6.94036 6.25 6.25C6.25 5.55964 6.80964 5 7.5 5C8.19036 5 8.75 5.55964 8.75 6.25C8.75 6.94036 8.19036 7.5 7.5 7.5ZM8.75 17.5H6.25V8.75H8.75V17.5Z" fill="#B1AEA5"/>
</svg>
