<svg width="25" height="25" viewBox="0 0 25 25" fill="none" xmlns="http://www.w3.org/2000/svg">
<path fill-rule="evenodd" clip-rule="evenodd" d="M15.7379 2.33456C13.913 3.98096 12.858 6.28179 12.858 8.75C12.858 13.5825 16.8877 17.5 21.8586 17.5C22.0453 17.5 22.2312 17.4945 22.4161 17.4835L25 17.3303L23.5644 19.4244C21.1955 22.8798 17.2109 25 12.858 25C5.75672 25 0 19.4036 0 12.5C0 5.59644 5.75672 0 12.858 0C13.6098 0 14.3539 0.0628566 15.0846 0.186951L17.6378 0.620593L15.7379 2.33456ZM2.5716 12.5C2.5716 18.0228 7.17698 22.5 12.858 22.5C15.508 22.5 17.9855 21.5192 19.8546 19.8319C14.4186 18.9093 10.2864 14.2988 10.2864 8.75C10.2864 6.48979 10.9765 4.3356 12.2217 2.51882C6.83704 2.83828 2.5716 7.18489 2.5716 12.5Z" fill="#EFEFED" fill-opacity="0.42"/>
</svg>
