<svg width="35" height="35" viewBox="0 0 35 35" fill="none" xmlns="http://www.w3.org/2000/svg">
<path d="M0 17.5165C0 17.9116 0.131703 18.2573 0.411571 18.5372C0.691439 18.8006 1.03716 18.9323 1.39934 18.9323H4.75776C5.13641 18.9323 5.4492 18.8006 5.71261 18.5207C5.95955 18.2408 6.09125 17.9116 6.09125 17.5165C6.09125 17.1214 5.97601 16.7921 5.72907 16.5122C5.48213 16.2324 5.15287 16.1007 4.77422 16.1007H1.4158C1.03716 16.1007 0.707902 16.2324 0.428034 16.5122C0.148166 16.7921 0 17.1214 0 17.5165ZM4.70837 6.10772C4.70837 6.48636 4.84008 6.81561 5.08702 7.11195L7.50706 9.46613C7.754 9.72954 8.08326 9.84478 8.47836 9.84478C8.87347 9.84478 9.20273 9.71308 9.46613 9.46613C9.72954 9.21919 9.86124 8.9064 9.86124 8.52775C9.86124 8.13264 9.72954 7.77046 9.46613 7.47413L7.12841 5.13641C6.45343 4.6096 5.77846 4.6096 5.10348 5.13641C4.84007 5.39981 4.70837 5.72907 4.70837 6.10772ZM4.70837 28.8923C4.70837 29.2709 4.84008 29.6002 5.08702 29.8965C5.41627 30.1764 5.76199 30.3081 6.14064 30.3081C6.50282 30.3081 6.83208 30.1764 7.11195 29.913L9.46613 27.4929C9.72954 27.246 9.86124 26.9167 9.86124 26.5216C9.86124 26.1265 9.72954 25.7973 9.46613 25.5339C9.20273 25.2705 8.87347 25.1388 8.47836 25.1388C8.08326 25.1388 7.754 25.2705 7.50706 25.5339L5.10348 27.8881C4.84007 28.1515 4.70837 28.4972 4.70837 28.8923ZM8.9064 17.5165C8.9064 19.0475 9.28504 20.4798 10.0588 21.7968C10.8325 23.1138 11.8697 24.1675 13.2032 24.9412C14.5367 25.715 15.9525 26.0936 17.4835 26.0936C18.6359 26.0936 19.7389 25.8631 20.809 25.4022C21.8627 24.9412 22.7846 24.3321 23.5419 23.5583C24.3156 22.7846 24.9247 21.8791 25.3692 20.8255C25.8137 19.7719 26.0442 18.6524 26.0442 17.5C26.0442 15.9525 25.6656 14.5202 24.8918 13.2032C24.1181 11.8862 23.0809 10.849 21.7639 10.0753C20.4468 9.30151 19.0146 8.92286 17.4671 8.92286C15.9196 8.92286 14.4873 9.30151 13.1703 10.0753C11.8532 10.849 10.8161 11.8862 10.0423 13.2032C9.30151 14.5367 8.9064 15.969 8.9064 17.5165ZM11.7051 17.5165C11.7051 15.9031 12.2648 14.5367 13.4008 13.4008C14.5202 12.2648 15.8866 11.6886 17.5 11.6886C19.1134 11.6886 20.4798 12.2648 21.6157 13.4008C22.7516 14.5367 23.3278 15.9031 23.3278 17.5165C23.3278 19.0969 22.7516 20.4468 21.6157 21.5828C20.4798 22.7023 19.1134 23.262 17.5 23.262C15.9031 23.262 14.5367 22.7023 13.4172 21.5828C12.2648 20.4468 11.7051 19.0969 11.7051 17.5165ZM16.0842 4.70837C16.0842 5.10348 16.2159 5.43274 16.4958 5.69614C16.7756 5.95955 17.1049 6.09125 17.4835 6.09125C17.8786 6.09125 18.2244 5.95955 18.4878 5.69614C18.7512 5.43274 18.8829 5.10348 18.8829 4.70837V1.43227C18.8829 1.03716 18.7512 0.691441 18.4713 0.411572C18.1914 0.131702 17.8622 0 17.4835 0C17.1049 0 16.7592 0.131702 16.4958 0.411572C16.2159 0.691441 16.0842 1.03716 16.0842 1.43227V4.70837ZM16.0842 30.2258V33.5842C16.0842 33.9628 16.2159 34.2921 16.4958 34.572C16.7756 34.8518 17.1049 35 17.5 35C17.8951 35 18.2079 34.8683 18.4878 34.5884C18.7676 34.3086 18.8993 33.9793 18.8993 33.6007V30.2258C18.8993 29.8471 18.7676 29.5343 18.4878 29.2709C18.2079 29.0075 17.8786 28.8923 17.5 28.8923C17.1214 28.8923 16.7756 29.024 16.5122 29.2709C16.2488 29.5179 16.0842 29.8471 16.0842 30.2258ZM25.1717 8.52775C25.1717 8.9064 25.3034 9.21919 25.5503 9.44967C25.7973 9.71308 26.1101 9.82831 26.4722 9.82831C26.8674 9.82831 27.1966 9.69661 27.46 9.44967L29.8636 7.09548C30.127 6.81561 30.2587 6.4699 30.2587 6.09125C30.2587 5.71261 30.127 5.38335 29.8636 5.11994C29.2051 4.6096 28.5466 4.6096 27.888 5.11994L25.5503 7.45767C25.3034 7.754 25.1717 8.09972 25.1717 8.52775ZM25.1717 26.5052C25.1717 26.9167 25.3034 27.246 25.5503 27.4765L27.888 29.8965C28.1679 30.1599 28.4972 30.2916 28.8594 30.2916C29.2545 30.2916 29.5837 30.1599 29.8471 29.8801C30.127 29.6002 30.2587 29.2709 30.2587 28.8923C30.2587 28.4807 30.127 28.135 29.8636 27.8716L27.46 25.5174C27.1637 25.254 26.8344 25.1223 26.4722 25.1223C26.0936 25.1223 25.7973 25.254 25.5503 25.5174C25.3034 25.7808 25.1717 26.1101 25.1717 26.5052ZM28.8923 17.5165C28.8923 17.9116 29.024 18.2408 29.2874 18.5372C29.5508 18.8006 29.8636 18.9323 30.2258 18.9323H33.5513C33.9299 18.9323 34.2592 18.7841 34.539 18.5042C34.8189 18.2244 34.9671 17.8951 34.9671 17.5165C34.9671 17.1378 34.8189 16.8086 34.539 16.5287C34.2592 16.2488 33.9299 16.1171 33.5513 16.1171H30.2258C29.8471 16.1171 29.5179 16.2488 29.2709 16.5287C29.024 16.8086 28.8923 17.1214 28.8923 17.5165Z" fill="#B1AEA5"/>
</svg>
