<svg width="68" height="69" viewBox="0 0 68 69" fill="none" xmlns="http://www.w3.org/2000/svg">
<path d="M0 34.064C0 34.8323 0.256121 35.5046 0.800377 36.0489C1.34463 36.5611 2.01695 36.8173 2.72128 36.8173H9.25235C9.9887 36.8173 10.597 36.5611 11.1092 36.0169C11.5895 35.4726 11.8456 34.8323 11.8456 34.064C11.8456 33.2956 11.6215 32.6553 11.1412 32.111C10.661 31.5668 10.0207 31.3107 9.28437 31.3107H2.7533C2.01695 31.3107 1.37665 31.5668 0.832392 32.111C0.288136 32.6553 0 33.2956 0 34.064ZM9.15631 11.8775C9.15631 12.6139 9.41243 13.2542 9.89266 13.8304L14.5989 18.4086C15.0791 18.9208 15.7194 19.1449 16.4878 19.1449C17.2561 19.1449 17.8964 18.8888 18.4087 18.4086C18.9209 17.9284 19.177 17.3201 19.177 16.5837C19.177 15.8154 18.9209 15.1111 18.4087 14.5348L13.8625 9.98864C12.5499 8.96416 11.2373 8.96416 9.92467 9.98864C9.41243 10.5009 9.15631 11.1412 9.15631 11.8775ZM9.15631 56.1864C9.15631 56.9227 9.41243 57.563 9.89266 58.1393C10.533 58.6836 11.2053 58.9397 11.9416 58.9397C12.646 58.9397 13.2863 58.6836 13.8305 58.1713L18.4087 53.4651C18.9209 52.9849 19.177 52.3446 19.177 51.5762C19.177 50.8078 18.9209 50.1675 18.4087 49.6553C17.8964 49.1431 17.2561 48.8869 16.4878 48.8869C15.7194 48.8869 15.0791 49.1431 14.5989 49.6553L9.92467 54.2335C9.41243 54.7457 9.15631 55.418 9.15631 56.1864ZM17.3201 34.064C17.3201 37.0414 18.0565 39.8267 19.5612 42.3879C21.0659 44.9491 23.0829 46.9981 25.6761 48.5028C28.2693 50.0075 31.0226 50.7438 34 50.7438C36.2411 50.7438 38.3861 50.2956 40.467 49.3992C42.516 48.5028 44.3088 47.3182 45.7815 45.8135C47.2863 44.3088 48.4708 42.548 49.3352 40.499C50.1996 38.45 50.6478 36.273 50.6478 34.032C50.6478 31.0225 49.9115 28.2372 48.4068 25.676C46.9021 23.1148 44.8851 21.0979 42.3239 19.5932C39.7627 18.0885 36.9774 17.3521 33.968 17.3521C30.9586 17.3521 28.1733 18.0885 25.6121 19.5932C23.0508 21.0979 21.0339 23.1148 19.5292 25.676C18.0885 28.2692 17.3201 31.0546 17.3201 34.064ZM22.7627 34.064C22.7627 30.9265 23.8512 28.2692 26.0603 26.0602C28.2373 23.8512 30.8945 22.7306 34.032 22.7306C37.1695 22.7306 39.8267 23.8512 42.0358 26.0602C44.2448 28.2692 45.3653 30.9265 45.3653 34.064C45.3653 37.1374 44.2448 39.7626 42.0358 41.9717C39.8267 44.1487 37.1695 45.2372 34.032 45.2372C30.9266 45.2372 28.2693 44.1487 26.0923 41.9717C23.8512 39.7626 22.7627 37.1374 22.7627 34.064ZM31.2787 9.15625C31.2787 9.92461 31.5348 10.5649 32.0791 11.0772C32.6234 11.5894 33.2636 11.8455 34 11.8455C34.7684 11.8455 35.4407 11.5894 35.9529 11.0772C36.4652 10.5649 36.7213 9.92461 36.7213 9.15625V2.78526C36.7213 2.01689 36.4652 1.34457 35.9209 0.800316C35.3766 0.256058 34.7363 -6.10352e-05 34 -6.10352e-05C33.2636 -6.10352e-05 32.5913 0.256058 32.0791 0.800316C31.5348 1.34457 31.2787 2.01689 31.2787 2.78526V9.15625ZM31.2787 58.7796V65.3107C31.2787 66.047 31.5348 66.6873 32.0791 67.2316C32.6234 67.7758 33.2637 68.064 34.032 68.064C34.8004 68.064 35.4087 67.8078 35.9529 67.2636C36.4972 66.7193 36.7533 66.079 36.7533 65.3427V58.7796C36.7533 58.0432 36.4972 57.435 35.9529 56.9227C35.4087 56.4105 34.7684 56.1864 34.032 56.1864C33.2957 56.1864 32.6233 56.4425 32.1111 56.9227C31.5989 57.4029 31.2787 58.0432 31.2787 58.7796ZM48.951 16.5837C48.951 17.3201 49.2071 17.9284 49.6874 18.3766C50.1676 18.8888 50.7759 19.1129 51.4802 19.1129C52.2486 19.1129 52.8889 18.8568 53.4011 18.3766L58.0753 13.7984C58.5876 13.2542 58.8437 12.5819 58.8437 11.8455C58.8437 11.1092 58.5876 10.4689 58.0753 9.95663C56.7947 8.96416 55.5141 8.96416 54.2335 9.95663L49.6874 14.5028C49.2071 15.079 48.951 15.7514 48.951 16.5837ZM48.951 51.5442C48.951 52.3446 49.2071 52.9849 49.6874 53.4331L54.2335 58.1393C54.7778 58.6515 55.4181 58.9077 56.1224 58.9077C56.8908 58.9077 57.5311 58.6515 58.0433 58.1073C58.5876 57.563 58.8437 56.9227 58.8437 56.1864C58.8437 55.386 58.5876 54.7137 58.0753 54.2014L53.4011 49.6233C52.8249 49.111 52.1846 48.8549 51.4802 48.8549C50.7439 48.8549 50.1676 49.111 49.6874 49.6233C49.2071 50.1355 48.951 50.7758 48.951 51.5442ZM56.1864 34.064C56.1864 34.8323 56.4426 35.4726 56.9548 36.0489C57.467 36.5611 58.0753 36.8173 58.7797 36.8173H65.2467C65.983 36.8173 66.6233 36.5291 67.1676 35.9849C67.7119 35.4406 68 34.8003 68 34.064C68 33.3276 67.7119 32.6873 67.1676 32.1431C66.6233 31.5988 65.983 31.3427 65.2467 31.3427H58.7797C58.0433 31.3427 57.403 31.5988 56.9228 32.1431C56.4426 32.6873 56.1864 33.2956 56.1864 34.064Z" fill="black"/>
</svg>
